<svg version="1.1" id="Layer_1" xmlns="http://www.w3.org/2000/svg" xmlns:xlink="http://www.w3.org/1999/xlink" x="0px" y="0px"
	 width="100%" viewBox="0 0 266 266" enable-background="new 0 0 266 266" xml:space="preserve">
<path fill="#C10A26" opacity="1.000000" stroke="none" 
	d="
M120.000000,267.000000 
	C80.018562,267.000000 40.537125,267.000000 1.027843,267.000000 
	C1.027843,178.393570 1.027843,89.787125 1.027843,1.090343 
	C89.564690,1.090343 178.129501,1.090343 266.847168,1.090343 
	C266.847168,89.666466 266.847168,178.333206 266.847168,267.000000 
	C218.120605,267.000000 169.310303,267.000000 120.000000,267.000000 
M227.736740,150.757568 
	C224.047577,159.254501 218.662964,162.371826 209.627319,161.241699 
	C201.732803,160.254303 197.280380,155.445557 195.977798,146.468613 
	C195.786697,145.151535 195.575516,143.822647 195.560226,142.497070 
	C195.414062,129.843658 195.306290,117.189789 195.192795,104.536003 
	C195.177261,102.803795 195.190659,101.071312 195.190659,99.509857 
	C191.329941,99.509857 188.259705,99.509857 185.141891,99.509857 
	C185.141891,114.693932 184.646530,129.529755 185.272812,144.318085 
	C185.985092,161.137085 195.802490,170.335159 211.828934,170.540405 
	C228.211365,170.750214 237.842926,162.238617 239.102753,145.261032 
	C239.914261,134.324814 239.454224,123.293510 239.541336,112.304634 
	C239.575302,108.020218 239.546890,103.735298 239.546890,99.437836 
	C235.788559,99.437836 232.696899,99.437836 229.140869,99.437836 
	C229.140869,109.184090 229.293045,118.644066 229.091721,128.096497 
	C228.936356,135.391418 228.337509,142.676895 227.736740,150.757568 
M103.140869,103.205841 
	C118.087914,100.354301 123.195099,102.697609 130.760330,115.750153 
	C131.149277,116.421219 132.162872,116.730240 132.885651,117.207809 
	C133.417191,116.342285 134.363358,115.493736 134.399612,114.607941 
	C134.494278,112.294083 133.880341,109.931610 134.118179,107.647789 
	C134.483841,104.136505 132.753906,102.685966 129.783051,101.508591 
	C115.740150,95.943230 102.073158,96.977203 88.802170,103.772545 
	C75.979095,110.338539 69.930214,121.254013 70.053711,135.416031 
	C70.171745,148.950836 76.820663,158.924026 88.655678,165.110809 
	C102.562157,172.380478 116.905968,171.656387 131.082443,165.800659 
	C132.663467,165.147583 134.191422,162.560150 134.389481,160.723724 
	C134.868927,156.277863 134.612167,151.744537 134.529037,147.248749 
	C134.467316,143.910797 135.480225,141.896912 139.288513,141.746536 
	C140.408432,141.702316 141.467255,140.111298 142.554077,139.229187 
	C142.232803,138.813873 141.911530,138.398544 141.590256,137.983231 
	C132.784805,137.983231 123.979279,138.005829 115.173973,137.970978 
	C112.085503,137.958755 111.461929,139.318985 112.641533,142.200745 
	C115.405441,142.200745 118.137535,141.818024 120.691956,142.327011 
	C122.589188,142.705048 125.050346,143.803284 125.891159,145.333191 
	C130.075684,152.947144 125.871025,162.542709 117.531776,164.991638 
	C109.753075,167.276001 102.239174,166.481949 95.615532,161.729141 
	C85.180840,154.241745 80.498871,143.716202 81.430557,131.038971 
	C82.425041,117.507317 89.260742,108.010292 103.140869,103.205841 
M52.857124,124.500961 
	C52.856804,120.006744 52.849487,115.512520 52.857780,111.018318 
	C52.870567,104.088982 52.994465,104.023407 59.936855,102.864975 
	C60.960083,102.694229 61.838272,101.654266 62.783562,101.016464 
	C61.729786,100.498009 60.683041,99.547394 59.621117,99.530128 
	C51.815044,99.403130 44.004692,99.397125 36.199322,99.544853 
	C35.199387,99.563782 34.220383,100.688599 33.231682,101.301109 
	C34.214272,101.872620 35.150719,102.828827 36.186951,102.953125 
	C42.846474,103.751938 43.794933,104.676796 43.802460,111.347961 
	C43.823875,130.323608 43.883560,149.299789 43.754093,168.274567 
	C43.724785,172.569901 43.345024,176.937881 42.432468,181.121002 
	C41.965652,183.260864 39.963367,185.065735 38.655056,187.022018 
	C37.051468,185.398514 35.540039,183.667969 33.816345,182.183960 
	C32.324451,180.899506 30.692417,179.249619 28.932810,178.974869 
	C27.575079,178.762833 24.943733,180.166214 24.629845,181.325500 
	C24.145136,183.115677 24.506647,185.913605 25.689732,187.189575 
	C27.358246,188.989105 29.982056,190.432922 32.413258,190.896194 
	C39.806107,192.304932 46.262337,189.238922 49.164703,182.291153 
	C51.166653,177.498825 52.516205,172.112946 52.694580,166.941879 
	C53.170578,153.142685 52.856918,139.316223 52.857124,124.500961 
M166.041687,100.500008 
	C166.041687,83.722656 166.041687,66.945297 166.041687,49.889751 
	C163.923035,50.021160 162.344147,50.119091 160.759888,50.217354 
	C160.759888,105.441299 160.759888,160.306030 160.759888,215.566360 
	C162.693130,215.478134 164.255035,215.406845 166.041687,215.325302 
	C166.041687,177.078873 166.041687,139.289444 166.041687,100.500008 
z"/>
<path fill="#FCF5F6" opacity="1.000000" stroke="none" 
	d="
M227.836273,150.362061 
	C228.337509,142.676895 228.936356,135.391418 229.091721,128.096497 
	C229.293045,118.644066 229.140869,109.184090 229.140869,99.437836 
	C232.696899,99.437836 235.788559,99.437836 239.546890,99.437836 
	C239.546890,103.735298 239.575302,108.020218 239.541336,112.304634 
	C239.454224,123.293510 239.914261,134.324814 239.102753,145.261032 
	C237.842926,162.238617 228.211365,170.750214 211.828934,170.540405 
	C195.802490,170.335159 185.985092,161.137085 185.272812,144.318085 
	C184.646530,129.529755 185.141891,114.693932 185.141891,99.509857 
	C188.259705,99.509857 191.329941,99.509857 195.190659,99.509857 
	C195.190659,101.071312 195.177261,102.803795 195.192795,104.536003 
	C195.306290,117.189789 195.414062,129.843658 195.560226,142.497070 
	C195.575516,143.822647 195.786697,145.151535 195.977798,146.468613 
	C197.280380,155.445557 201.732803,160.254303 209.627319,161.241699 
	C218.662964,162.371826 224.047577,159.254501 227.836273,150.362061 
z"/>
<path fill="#FCF6F7" opacity="1.000000" stroke="none" 
	d="
M102.762970,103.355560 
	C89.260742,108.010292 82.425041,117.507317 81.430557,131.038971 
	C80.498871,143.716202 85.180840,154.241745 95.615532,161.729141 
	C102.239174,166.481949 109.753075,167.276001 117.531776,164.991638 
	C125.871025,162.542709 130.075684,152.947144 125.891159,145.333191 
	C125.050346,143.803284 122.589188,142.705048 120.691956,142.327011 
	C118.137535,141.818024 115.405441,142.200745 112.641533,142.200745 
	C111.461929,139.318985 112.085503,137.958755 115.173973,137.970978 
	C123.979279,138.005829 132.784805,137.983231 141.590256,137.983231 
	C141.911530,138.398544 142.232803,138.813873 142.554077,139.229187 
	C141.467255,140.111298 140.408432,141.702316 139.288513,141.746536 
	C135.480225,141.896912 134.467316,143.910797 134.529037,147.248749 
	C134.612167,151.744537 134.868927,156.277863 134.389481,160.723724 
	C134.191422,162.560150 132.663467,165.147583 131.082443,165.800659 
	C116.905968,171.656387 102.562157,172.380478 88.655678,165.110809 
	C76.820663,158.924026 70.171745,148.950836 70.053711,135.416031 
	C69.930214,121.254013 75.979095,110.338539 88.802170,103.772545 
	C102.073158,96.977203 115.740150,95.943230 129.783051,101.508591 
	C132.753906,102.685966 134.483841,104.136505 134.118179,107.647789 
	C133.880341,109.931610 134.494278,112.294083 134.399612,114.607941 
	C134.363358,115.493736 133.417191,116.342285 132.885651,117.207809 
	C132.162872,116.730240 131.149277,116.421219 130.760330,115.750153 
	C123.195099,102.697609 118.087914,100.354301 102.762970,103.355560 
z"/>
<path fill="#FDF6F7" opacity="1.000000" stroke="none" 
	d="
M52.857124,125.000786 
	C52.856918,139.316223 53.170578,153.142685 52.694580,166.941879 
	C52.516205,172.112946 51.166653,177.498825 49.164703,182.291153 
	C46.262337,189.238922 39.806107,192.304932 32.413258,190.896194 
	C29.982056,190.432922 27.358246,188.989105 25.689732,187.189575 
	C24.506647,185.913605 24.145136,183.115677 24.629845,181.325500 
	C24.943733,180.166214 27.575079,178.762833 28.932810,178.974869 
	C30.692417,179.249619 32.324451,180.899506 33.816345,182.183960 
	C35.540039,183.667969 37.051468,185.398514 38.655056,187.022018 
	C39.963367,185.065735 41.965652,183.260864 42.432468,181.121002 
	C43.345024,176.937881 43.724785,172.569901 43.754093,168.274567 
	C43.883560,149.299789 43.823875,130.323608 43.802460,111.347961 
	C43.794933,104.676796 42.846474,103.751938 36.186951,102.953125 
	C35.150719,102.828827 34.214272,101.872620 33.231682,101.301109 
	C34.220383,100.688599 35.199387,99.563782 36.199322,99.544853 
	C44.004692,99.397125 51.815044,99.403130 59.621117,99.530128 
	C60.683041,99.547394 61.729786,100.498009 62.783562,101.016464 
	C61.838272,101.654266 60.960083,102.694229 59.936855,102.864975 
	C52.994465,104.023407 52.870567,104.088982 52.857780,111.018318 
	C52.849487,115.512520 52.856804,120.006744 52.857124,125.000786 
z"/>
<path fill="#FAEAED" opacity="1.000000" stroke="none" 
	d="
M166.041687,101.000015 
	C166.041687,139.289444 166.041687,177.078873 166.041687,215.325302 
	C164.255035,215.406845 162.693130,215.478134 160.759888,215.566360 
	C160.759888,160.306030 160.759888,105.441299 160.759888,50.217354 
	C162.344147,50.119091 163.923035,50.021160 166.041687,49.889751 
	C166.041687,66.945297 166.041687,83.722656 166.041687,101.000015 
z"/>
</svg>